
<svg width="150" height="150" viewBox="0 0 150 150" fill="none" xmlns="http://www.w3.org/2000/svg">
  <path d="M75 135C108.137 135 135 108.137 135 75C135 41.8629 108.137 15 75 15C41.8629 15 15 41.8629 15 75C15 108.137 41.8629 135 75 135Z" fill="url(#paint0_linear)" fill-opacity="0.05" stroke="url(#paint1_linear)" stroke-width="3"/>
  <path d="M50 65L75 90L100 65" stroke="url(#paint2_linear)" stroke-width="6" stroke-linecap="round" stroke-linejoin="round"/>
  <path d="M50 40L75 65L100 40" stroke="url(#paint3_linear)" stroke-width="6" stroke-linecap="round" stroke-linejoin="round"/>
  <path d="M75 65V115" stroke="url(#paint4_linear)" stroke-width="6" stroke-linecap="round"/>
  <defs>
    <linearGradient id="paint0_linear" x1="15" y1="15" x2="135" y2="135" gradientUnits="userSpaceOnUse">
      <stop stop-color="#3490DC"/>
      <stop offset="1" stop-color="#6366F1"/>
    </linearGradient>
    <linearGradient id="paint1_linear" x1="15" y1="15" x2="135" y2="135" gradientUnits="userSpaceOnUse">
      <stop stop-color="#3490DC"/>
      <stop offset="1" stop-color="#6366F1"/>
    </linearGradient>
    <linearGradient id="paint2_linear" x1="50" y1="65" x2="100" y2="90" gradientUnits="userSpaceOnUse">
      <stop stop-color="#3490DC"/>
      <stop offset="1" stop-color="#6366F1"/>
    </linearGradient>
    <linearGradient id="paint3_linear" x1="50" y1="40" x2="100" y2="65" gradientUnits="userSpaceOnUse">
      <stop stop-color="#3490DC"/>
      <stop offset="1" stop-color="#6366F1"/>
    </linearGradient>
    <linearGradient id="paint4_linear" x1="75" y1="65" x2="76" y2="115" gradientUnits="userSpaceOnUse">
      <stop stop-color="#3490DC"/>
      <stop offset="1" stop-color="#6366F1"/>
    </linearGradient>
  </defs>
</svg>
